<svg width="740" height="160" viewBox="0 0 740 160" fill="none" xmlns="http://www.w3.org/2000/svg">
  <defs>
    <linearGradient id="orb" x1="16" y1="16" x2="144" y2="144" gradientUnits="userSpaceOnUse">
      <stop stop-color="#FCD34D"/>
      <stop offset="1" stop-color="#F59E0B"/>
    </linearGradient>
    <linearGradient id="text" x1="176" y1="28" x2="700" y2="128" gradientUnits="userSpaceOnUse">
      <stop stop-color="#0F172A"/>
      <stop offset="1" stop-color="#1D4ED8"/>
    </linearGradient>
  </defs>

  <rect x="8" y="8" width="144" height="144" rx="36" fill="#EFF6FF"/>
  <circle cx="80" cy="80" r="48" fill="url(#orb)"/>
  <path d="M82 46C68 62 68 92 83 112C57 104 44 74 56 49C64 33 79 27 96 30C90 33 86 38 82 46Z" fill="#FFF7ED"/>
  <path d="M113 51L116 58L123 61L116 64L113 71L110 64L103 61L110 58L113 51Z" fill="#2563EB"/>

  <text x="182" y="98" fill="url(#text)" font-size="62" font-weight="800" font-family="Pretendard, Apple SD Gothic Neo, Noto Sans KR, sans-serif">
    하루의 운세
  </text>
</svg>

